<svg width="64" height="64" viewBox="0 0 64 64" fill="none" xmlns="http://www.w3.org/2000/svg">
<rect width="64" height="64" rx="5" fill="black" fill-opacity="0.6"/>
<path d="M10.26 33.056C10.26 31.184 10.548 29.528 11.124 28.088C11.724 26.648 12.528 25.448 13.536 24.488C14.568 23.504 15.768 22.76 17.136 22.256C18.528 21.752 20.028 21.5 21.636 21.5C23.244 21.5 24.732 21.752 26.1 22.256C27.492 22.76 28.704 23.504 29.736 24.488C30.768 25.448 31.572 26.648 32.148 28.088C32.748 29.528 33.048 31.184 33.048 33.056C33.048 34.928 32.76 36.596 32.184 38.06C31.608 39.5 30.804 40.712 29.772 41.696C28.764 42.656 27.564 43.388 26.172 43.892C24.78 44.396 23.268 44.648 21.636 44.648C20.004 44.648 18.492 44.396 17.1 43.892C15.708 43.364 14.508 42.608 13.5 41.624C12.492 40.64 11.7 39.428 11.124 37.988C10.548 36.548 10.26 34.904 10.26 33.056ZM16.74 33.056C16.74 35.24 17.184 36.872 18.072 37.952C18.96 39.032 20.148 39.572 21.636 39.572C23.148 39.572 24.348 39.032 25.236 37.952C26.124 36.872 26.568 35.24 26.568 33.056C26.568 30.896 26.124 29.276 25.236 28.196C24.372 27.116 23.184 26.576 21.672 26.576C20.184 26.576 18.984 27.116 18.072 28.196C17.184 29.252 16.74 30.872 16.74 33.056Z" fill="#2496FF"/>
<path d="M44.8245 32.3C45.8325 32.3 46.6005 32.072 47.1285 31.616C47.6805 31.136 47.9565 30.416 47.9565 29.456C47.9565 28.544 47.6685 27.848 47.0925 27.368C46.5405 26.864 45.7245 26.612 44.6445 26.612C44.2605 26.612 43.9365 26.624 43.6725 26.648C43.4325 26.648 43.1805 26.672 42.9165 26.72V32.3H44.8245ZM42.9525 43.856C42.6885 43.928 42.2685 44 41.6925 44.072C41.1405 44.144 40.5885 44.18 40.0365 44.18C39.4845 44.18 38.9925 44.132 38.5605 44.036C38.1525 43.964 37.8045 43.82 37.5165 43.604C37.2285 43.388 37.0125 43.088 36.8685 42.704C36.7245 42.32 36.6525 41.816 36.6525 41.192V24.236C36.6525 23.732 36.7845 23.348 37.0485 23.084C37.3365 22.796 37.7205 22.568 38.2005 22.4C39.0165 22.112 39.9405 21.908 40.9725 21.788C42.0285 21.644 43.0845 21.572 44.1405 21.572C47.4525 21.572 49.9845 22.28 51.7365 23.696C53.4885 25.112 54.3645 27.032 54.3645 29.456C54.3645 30.632 54.1725 31.7 53.7885 32.66C53.4285 33.596 52.8765 34.412 52.1325 35.108C51.4125 35.78 50.4885 36.308 49.3605 36.692C48.2565 37.052 46.9725 37.232 45.5085 37.232H42.9525V43.856Z" fill="#FA5F5F"/>
</svg>
