<svg width="100" height="31" viewBox="0 0 100 31" fill="none" xmlns="http://www.w3.org/2000/svg">
<rect width="100" height="31" rx="5" fill="black" fill-opacity="0.6"/>
<path d="M10.63 15.528C10.63 14.592 10.774 13.764 11.062 13.044C11.362 12.324 11.764 11.724 12.268 11.244C12.784 10.752 13.384 10.38 14.068 10.128C14.764 9.876 15.514 9.75 16.318 9.75C17.122 9.75 17.866 9.876 18.55 10.128C19.246 10.38 19.852 10.752 20.368 11.244C20.884 11.724 21.286 12.324 21.574 13.044C21.874 13.764 22.024 14.592 22.024 15.528C22.024 16.464 21.88 17.298 21.592 18.03C21.304 18.75 20.902 19.356 20.386 19.848C19.882 20.328 19.282 20.694 18.586 20.946C17.89 21.198 17.134 21.324 16.318 21.324C15.502 21.324 14.746 21.198 14.05 20.946C13.354 20.682 12.754 20.304 12.25 19.812C11.746 19.32 11.35 18.714 11.062 17.994C10.774 17.274 10.63 16.452 10.63 15.528ZM13.87 15.528C13.87 16.62 14.092 17.436 14.536 17.976C14.98 18.516 15.574 18.786 16.318 18.786C17.074 18.786 17.674 18.516 18.118 17.976C18.562 17.436 18.784 16.62 18.784 15.528C18.784 14.448 18.562 13.638 18.118 13.098C17.686 12.558 17.092 12.288 16.336 12.288C15.592 12.288 14.992 12.558 14.536 13.098C14.092 13.626 13.87 14.436 13.87 15.528ZM33.7083 20.622C33.5403 20.79 33.2943 20.916 32.9703 21C32.6583 21.096 32.2803 21.144 31.8363 21.144C31.3923 21.144 30.9723 21.078 30.5763 20.946C30.1803 20.814 29.8563 20.496 29.6043 19.992L27.8223 16.356C27.6423 15.984 27.4803 15.636 27.3363 15.312C27.1923 14.976 27.0363 14.592 26.8683 14.16L26.7603 14.178C26.8083 14.826 26.8323 15.486 26.8323 16.158C26.8443 16.83 26.8503 17.49 26.8503 18.138V20.928C26.7183 20.964 26.5143 21 26.2383 21.036C25.9743 21.072 25.7103 21.09 25.4463 21.09C25.1823 21.09 24.9483 21.072 24.7443 21.036C24.5403 21 24.3723 20.928 24.2403 20.82C24.1083 20.712 24.0063 20.568 23.9343 20.388C23.8623 20.196 23.8263 19.95 23.8263 19.65V10.65C23.9943 10.41 24.2523 10.23 24.6003 10.11C24.9483 9.99 25.3203 9.93 25.7163 9.93C26.1603 9.93 26.5803 10.002 26.9763 10.146C27.3843 10.278 27.7083 10.59 27.9482 11.082L29.7483 14.718C29.9283 15.09 30.0903 15.444 30.2343 15.78C30.3783 16.104 30.5343 16.482 30.7023 16.914L30.7923 16.896C30.7443 16.248 30.7143 15.6 30.7023 14.952C30.6903 14.304 30.6843 13.656 30.6843 13.008V10.092C30.8163 10.056 31.0143 10.02 31.2783 9.984C31.5543 9.948 31.8243 9.93 32.0883 9.93C32.6163 9.93 33.0183 10.026 33.2943 10.218C33.5703 10.398 33.7083 10.782 33.7083 11.37V20.622Z" fill="#2496FF"/>
<path d="M43.7326 15.15C44.2366 15.15 44.6206 15.036 44.8846 14.808C45.1606 14.568 45.2986 14.208 45.2986 13.728C45.2986 13.272 45.1546 12.924 44.8666 12.684C44.5906 12.432 44.1826 12.306 43.6426 12.306C43.4506 12.306 43.2886 12.312 43.1566 12.324C43.0366 12.324 42.9106 12.336 42.7786 12.36V15.15H43.7326ZM42.7966 20.928C42.6646 20.964 42.4546 21 42.1666 21.036C41.8906 21.072 41.6146 21.09 41.3386 21.09C41.0626 21.09 40.8166 21.066 40.6006 21.018C40.3966 20.982 40.2226 20.91 40.0786 20.802C39.9346 20.694 39.8266 20.544 39.7546 20.352C39.6826 20.16 39.6466 19.908 39.6466 19.596V11.118C39.6466 10.866 39.7126 10.674 39.8446 10.542C39.9886 10.398 40.1806 10.284 40.4206 10.2C40.8286 10.056 41.2906 9.954 41.8066 9.894C42.3346 9.822 42.8626 9.786 43.3906 9.786C45.0466 9.786 46.3126 10.14 47.1886 10.848C48.0646 11.556 48.5026 12.516 48.5026 13.728C48.5026 14.316 48.4066 14.85 48.2146 15.33C48.0346 15.798 47.7586 16.206 47.3866 16.554C47.0266 16.89 46.5646 17.154 46.0006 17.346C45.4486 17.526 44.8066 17.616 44.0746 17.616H42.7966V20.928ZM51.7795 21.054C51.2635 21.054 50.8555 20.904 50.5555 20.604C50.2555 20.304 50.1055 19.896 50.1055 19.38V10.074C50.2375 10.05 50.4475 10.02 50.7355 9.984C51.0235 9.936 51.2995 9.912 51.5635 9.912C51.8395 9.912 52.0795 9.936 52.2835 9.984C52.4995 10.02 52.6795 10.092 52.8235 10.2C52.9675 10.308 53.0755 10.458 53.1475 10.65C53.2195 10.842 53.2555 11.094 53.2555 11.406V18.516H57.3775C57.4615 18.648 57.5395 18.828 57.6115 19.056C57.6835 19.272 57.7195 19.5 57.7195 19.74C57.7195 20.22 57.6175 20.562 57.4135 20.766C57.2095 20.958 56.9395 21.054 56.6035 21.054H51.7795ZM58.2491 15.528C58.2491 14.592 58.3931 13.764 58.6811 13.044C58.9811 12.324 59.3831 11.724 59.8871 11.244C60.4031 10.752 61.0031 10.38 61.6871 10.128C62.3831 9.876 63.1331 9.75 63.9371 9.75C64.7411 9.75 65.4851 9.876 66.1691 10.128C66.8651 10.38 67.4711 10.752 67.9871 11.244C68.5031 11.724 68.9051 12.324 69.1931 13.044C69.4931 13.764 69.6431 14.592 69.6431 15.528C69.6431 16.464 69.4991 17.298 69.2111 18.03C68.9231 18.75 68.5211 19.356 68.0051 19.848C67.5011 20.328 66.9011 20.694 66.2051 20.946C65.5091 21.198 64.7531 21.324 63.9371 21.324C63.1211 21.324 62.3651 21.198 61.6691 20.946C60.9731 20.682 60.3731 20.304 59.8691 19.812C59.3651 19.32 58.9691 18.714 58.6811 17.994C58.3931 17.274 58.2491 16.452 58.2491 15.528ZM61.4891 15.528C61.4891 16.62 61.7111 17.436 62.1551 17.976C62.5991 18.516 63.1931 18.786 63.9371 18.786C64.6931 18.786 65.2931 18.516 65.7371 17.976C66.1811 17.436 66.4031 16.62 66.4031 15.528C66.4031 14.448 66.1811 13.638 65.7371 13.098C65.3051 12.558 64.7111 12.288 63.9551 12.288C63.2111 12.288 62.6111 12.558 62.1551 13.098C61.7111 13.626 61.4891 14.436 61.4891 15.528ZM70.625 12.612C70.541 12.48 70.463 12.3 70.391 12.072C70.319 11.844 70.283 11.604 70.283 11.352C70.283 10.884 70.385 10.548 70.589 10.344C70.805 10.14 71.081 10.038 71.417 10.038H79.265C79.349 10.17 79.427 10.35 79.499 10.578C79.571 10.806 79.607 11.046 79.607 11.298C79.607 11.766 79.499 12.102 79.283 12.306C79.079 12.51 78.809 12.612 78.473 12.612H76.475V20.928C76.343 20.964 76.133 21 75.845 21.036C75.569 21.072 75.293 21.09 75.017 21.09C74.741 21.09 74.495 21.066 74.279 21.018C74.075 20.982 73.901 20.91 73.757 20.802C73.613 20.694 73.505 20.544 73.433 20.352C73.361 20.16 73.325 19.908 73.325 19.596V12.612H70.625ZM84.0863 16.662C83.5583 16.482 83.0783 16.302 82.6463 16.122C82.2143 15.93 81.8423 15.702 81.5303 15.438C81.2183 15.174 80.9723 14.862 80.7923 14.502C80.6243 14.13 80.5403 13.68 80.5403 13.152C80.5403 12.132 80.9303 11.316 81.7103 10.704C82.5023 10.092 83.6063 9.786 85.0223 9.786C85.5383 9.786 86.0183 9.822 86.4623 9.894C86.9063 9.966 87.2843 10.08 87.5963 10.236C87.9203 10.38 88.1723 10.572 88.3523 10.812C88.5323 11.04 88.6223 11.31 88.6223 11.622C88.6223 11.934 88.5503 12.204 88.4063 12.432C88.2623 12.648 88.0883 12.834 87.8843 12.99C87.6203 12.822 87.2663 12.678 86.8223 12.558C86.3783 12.426 85.8923 12.36 85.3643 12.36C84.8243 12.36 84.4283 12.438 84.1763 12.594C83.9243 12.738 83.7983 12.924 83.7983 13.152C83.7983 13.332 83.8763 13.482 84.0323 13.602C84.1883 13.71 84.4223 13.812 84.7343 13.908L85.6883 14.214C86.8163 14.574 87.6803 15.036 88.2803 15.6C88.8923 16.152 89.1983 16.908 89.1983 17.868C89.1983 18.888 88.7963 19.716 87.9923 20.352C87.1883 20.976 86.0063 21.288 84.4463 21.288C83.8943 21.288 83.3783 21.24 82.8983 21.144C82.4303 21.06 82.0163 20.934 81.6563 20.766C81.3083 20.586 81.0323 20.37 80.8283 20.118C80.6363 19.854 80.5403 19.554 80.5403 19.218C80.5403 18.87 80.6423 18.576 80.8463 18.336C81.0503 18.084 81.2723 17.892 81.5123 17.76C81.8483 18.024 82.2563 18.252 82.7363 18.444C83.2283 18.636 83.7623 18.732 84.3383 18.732C84.9263 18.732 85.3403 18.642 85.5803 18.462C85.8203 18.282 85.9403 18.072 85.9403 17.832C85.9403 17.592 85.8443 17.412 85.6523 17.292C85.4603 17.16 85.1903 17.034 84.8423 16.914L84.0863 16.662Z" fill="#FA5F5F"/>
</svg>
